<svg width="23" height="23" viewBox="0 0 23 23" fill="none" xmlns="http://www.w3.org/2000/svg">
<g clip-path="url(#clip0_4028_4904)">
<path d="M11.5 0C5.1589 0 0 5.15897 0 11.5001C0 17.8412 5.1589 23 11.5 23C17.8411 23 23 17.8412 23 11.5001C23 5.15897 17.8411 0 11.5 0ZM11.5 20.9091C6.31176 20.9091 2.09091 16.6882 2.09091 11.5001C2.09091 6.3119 6.31176 2.09091 11.5 2.09091C16.6882 2.09091 20.9091 6.3119 20.9091 11.5001C20.9091 16.6882 16.6882 20.9091 11.5 20.9091Z" fill="white"/>
<path d="M11.4991 4.87878C10.7307 4.87878 10.1055 5.50438 10.1055 6.27335C10.1055 7.04162 10.7307 7.66666 11.4991 7.66666C12.2676 7.66666 12.8928 7.04162 12.8928 6.27335C12.8928 5.50438 12.2676 4.87878 11.4991 4.87878Z" fill="white"/>
<path d="M11.5005 9.75757C10.9232 9.75757 10.4551 10.2257 10.4551 10.803V17.0758C10.4551 17.6531 10.9232 18.1212 11.5005 18.1212C12.0779 18.1212 12.546 17.6531 12.546 17.0758V10.803C12.546 10.2257 12.0779 9.75757 11.5005 9.75757Z" fill="white"/>
</g>
<defs>
<clipPath id="clip0_4028_4904">
<rect width="23" height="23" fill="white"/>
</clipPath>
</defs>
</svg>
