<svg width="23" height="23" viewBox="0 0 23 23" fill="none" xmlns="http://www.w3.org/2000/svg">
<g clip-path="url(#clip0_4028_4963)">
<path d="M22.8025 0.197364C22.5394 -0.065788 22.1127 -0.065788 21.8495 0.197364L19.8869 2.16C19.7662 2.1025 19.6389 2.05618 19.506 2.02299L13.4069 0.516174C12.7221 0.344977 11.9864 0.548697 11.4872 1.04791L0.591115 11.9261C-0.197038 12.7143 -0.197038 13.9968 0.591115 14.785L8.21493 22.4088C9.00312 23.197 10.2856 23.1971 11.0739 22.4088L21.9521 11.5127C22.4513 11.0135 22.655 10.2778 22.4837 9.59289L20.977 3.49386C20.9437 3.36098 20.8975 3.23363 20.84 3.11297L22.8026 1.15033C23.0657 0.887183 23.0657 0.460516 22.8025 0.197364ZM21.1762 9.91983C21.2333 10.1481 21.1654 10.3933 20.999 10.5597L10.1208 21.4558C9.85808 21.7186 9.43055 21.7186 9.16781 21.4558L1.54404 13.832C1.28129 13.5693 1.28129 13.1418 1.54404 12.879L12.4402 2.00088C12.5676 1.87344 12.7413 1.80377 12.9182 1.80377C12.9723 1.80377 13.0267 1.81028 13.0801 1.82362L18.809 3.2379L17.1862 4.86069C16.4348 4.50285 15.5068 4.63411 14.8857 5.2552C14.0975 6.04344 14.0975 7.32591 14.8857 8.11415C15.2798 8.50825 15.7975 8.70533 16.3152 8.70533C16.8328 8.70533 17.3505 8.5083 17.7446 8.11415C18.3658 7.49298 18.497 6.56498 18.1391 5.81367L19.7619 4.19087L21.1762 9.91983ZM16.7917 7.16123C16.529 7.42393 16.1014 7.42398 15.8387 7.16123C15.576 6.89853 15.576 6.47096 15.8387 6.20826C15.9701 6.07686 16.1426 6.01123 16.3152 6.01123C16.4877 6.01123 16.6603 6.07691 16.7916 6.20821L16.7916 6.20826L16.7917 6.2083C17.0544 6.47101 17.0544 6.89853 16.7917 7.16123Z" fill="white"/>
<path d="M11.0731 8.11422C10.2849 7.32602 9.0024 7.32602 8.21416 8.11422C7.42601 8.90242 7.42601 10.1849 8.21416 10.9732C9.00236 11.7614 10.2849 11.7614 11.0731 10.9732C11.8614 10.1849 11.8614 8.90246 11.0731 8.11422ZM10.1202 10.0202C9.85744 10.2829 9.42992 10.2829 9.16722 10.0202C8.90452 9.75741 8.90443 9.32989 9.16718 9.06719C9.42992 8.80449 9.8574 8.80444 10.1202 9.06719C10.3829 9.32989 10.3829 9.75741 10.1202 10.0202Z" fill="white"/>
<path d="M12.0263 14.7851C11.2362 13.995 9.95753 13.9949 9.16735 14.7851C8.37911 15.5733 8.37911 16.8558 9.16735 17.644C9.95744 18.4341 11.2361 18.4342 12.0263 17.644C12.8145 16.8558 12.8145 15.5733 12.0263 14.7851ZM11.0733 16.6911C10.81 16.9544 10.3837 16.9544 10.1203 16.6911C9.85762 16.4284 9.85762 16.0008 10.1203 15.7381C10.3837 15.4748 10.81 15.4747 11.0733 15.7381C11.336 16.0008 11.336 16.4283 11.0733 16.6911Z" fill="white"/>
<path d="M15.0786 12.3282C15.0375 11.9583 14.7043 11.6917 14.3345 11.7328L5.75773 12.6858C5.38785 12.7269 5.12128 13.06 5.16238 13.43C5.2007 13.7746 5.49242 14.0295 5.83131 14.0295C5.85616 14.0295 5.88131 14.0281 5.90656 14.0253L14.4833 13.0723C14.8532 13.0312 15.1198 12.6981 15.0786 12.3282Z" fill="white"/>
</g>
<defs>
<clipPath id="clip0_4028_4963">
<rect width="23" height="23" fill="white"/>
</clipPath>
</defs>
</svg>
