<svg width="23" height="23" viewBox="0 0 23 23" fill="none" xmlns="http://www.w3.org/2000/svg">
<g clip-path="url(#clip0_4028_4953)">
<path d="M22.2812 21.5625H21.7643L21.1817 19.232C21.1016 18.912 20.8142 18.6875 20.4844 18.6875H17.9688V17.6094H20.125C20.522 17.6094 20.8438 17.2876 20.8438 16.8906C20.8438 16.4937 20.522 16.1719 20.125 16.1719V15.8125C20.125 11.2987 16.6395 7.58416 12.2188 7.21769V6.10938H13.2969C13.6938 6.10938 14.0156 5.78755 14.0156 5.39062C14.0156 4.9937 13.6938 4.67188 13.2969 4.67188H9.70312C9.30615 4.67188 8.98438 4.9937 8.98438 5.39062C8.98438 5.78755 9.30615 6.10938 9.70312 6.10938H10.7812V7.21769C6.36049 7.58416 2.875 11.2987 2.875 15.8125V16.1719C2.47803 16.1719 2.15625 16.4937 2.15625 16.8906C2.15625 17.2876 2.47803 17.6094 2.875 17.6094H5.03125V18.6875H2.51562C2.18581 18.6875 1.89835 18.912 1.81835 19.232L1.23567 21.5625H0.71875C0.321775 21.5625 0 21.8843 0 22.2812C0 22.6782 0.321775 23 0.71875 23H22.2812C22.6782 23 23 22.6782 23 22.2812C23 21.8843 22.6782 21.5625 22.2812 21.5625ZM4.3125 15.8125C4.3125 11.8493 7.53677 8.625 11.5 8.625C15.4632 8.625 18.6875 11.8493 18.6875 15.8125V16.1719C16.503 16.1719 4.95502 16.1719 4.3125 16.1719V15.8125ZM6.46875 17.6094H16.5312V18.6875H6.46875V17.6094ZM2.71741 21.5625L3.07679 20.125H19.9232L20.2826 21.5625H2.71741Z" fill="white"/>
<path d="M0.71875 12.2188H2.15625C2.55322 12.2188 2.875 11.8969 2.875 11.5C2.875 11.1031 2.55322 10.7812 2.15625 10.7812H0.71875C0.321775 10.7812 0 11.1031 0 11.5C0 11.8969 0.321775 12.2188 0.71875 12.2188Z" fill="white"/>
<path d="M20.8438 12.2188H22.2812C22.6782 12.2188 23 11.8969 23 11.5C23 11.1031 22.6782 10.7812 22.2812 10.7812H20.8438C20.4468 10.7812 20.125 11.1031 20.125 11.5C20.125 11.8969 20.4468 12.2188 20.8438 12.2188Z" fill="white"/>
<path d="M4.38523 5.40122C4.6659 5.68189 5.12101 5.68194 5.40168 5.40122C5.6824 5.1205 5.6824 4.66544 5.40168 4.38477L4.38519 3.36824C4.10452 3.08756 3.64941 3.08752 3.36874 3.36824C3.08802 3.64895 3.08802 4.10401 3.36874 4.38468L4.38523 5.40122Z" fill="white"/>
<path d="M18.1063 5.61174C18.2902 5.61174 18.4741 5.54153 18.6145 5.40124L19.631 4.38479C19.9117 4.10407 19.9117 3.64901 19.631 3.36834C19.3503 3.08767 18.8952 3.08767 18.6145 3.36834L17.598 4.38479C17.144 4.83881 17.4717 5.61174 18.1063 5.61174Z" fill="white"/>
<path d="M11.5 2.875C11.897 2.875 12.2188 2.55318 12.2188 2.15625V0.71875C12.2188 0.32182 11.897 0 11.5 0C11.103 0 10.7812 0.32182 10.7812 0.71875V2.15625C10.7812 2.55318 11.103 2.875 11.5 2.875Z" fill="white"/>
</g>
<defs>
<clipPath id="clip0_4028_4953">
<rect width="23" height="23" fill="white"/>
</clipPath>
</defs>
</svg>
