<svg width="18" height="18" viewBox="0 0 18 18" fill="none" xmlns="http://www.w3.org/2000/svg">
<g clip-path="url(#clip0_4028_4739)">
<path d="M14.8668 3.83639C14.8078 3.7775 14.748 3.71992 14.6877 3.66304L15.2702 2.96448L16.2248 3.76052L17.1254 2.68052L14.1363 0.18777L13.2356 1.26777L14.1902 2.06381L13.5873 2.78684C12.4313 2.01667 11.1028 1.55275 9.70312 1.43603V0H8.29688V1.43603C6.34591 1.5987 4.53336 2.43622 3.13323 3.83636C1.56614 5.40341 0.703125 7.48695 0.703125 9.70312C0.703125 11.9193 1.56614 14.0028 3.13323 15.5699C4.70029 17.137 6.78382 18 9 18C11.2162 18 13.2997 17.137 14.8668 15.5699C16.4339 14.0028 17.2969 11.9193 17.2969 9.70312C17.2969 7.48695 16.4339 5.40341 14.8668 3.83639ZM9 16.5938C5.20049 16.5938 2.10938 13.5026 2.10938 9.70312C2.10938 5.90361 5.20049 2.8125 9 2.8125C12.7995 2.8125 15.8906 5.90361 15.8906 9.70312C15.8906 13.5026 12.7995 16.5938 9 16.5938Z" fill="#02B0EA"/>
<path d="M11.8788 5.02795L9.21955 8.31408C9.14797 8.30279 9.07467 8.29682 9 8.29682C8.22459 8.29682 7.59375 8.92766 7.59375 9.70307C7.59375 10.4785 8.22459 11.1093 9 11.1093C9.77541 11.1093 10.4062 10.4785 10.4062 9.70307C10.4062 9.52546 10.3728 9.35558 10.3125 9.199L12.972 5.91259L11.8788 5.02795Z" fill="#02B0EA"/>
</g>
<defs>
<clipPath id="clip0_4028_4739">
<rect width="18" height="18" fill="white"/>
</clipPath>
</defs>
</svg>
