<svg width="44" height="43" viewBox="0 0 44 43" fill="none" xmlns="http://www.w3.org/2000/svg">
<path d="M37.2898 14.3403C37.3944 13.0307 37.1629 11.716 36.6177 10.5236C36.0725 9.33115 35.232 8.30142 34.1778 7.53415C33.1236 6.76688 31.8913 6.28811 30.6004 6.14422C29.3096 6.00033 28.0038 6.19619 26.8098 6.71285C26.1232 4.47078 24.6432 2.56373 22.6532 1.35687C20.6632 0.150007 18.3031 -0.271837 16.0248 0.172126C13.7465 0.61609 11.7102 1.89466 10.3057 3.76298C8.90129 5.63131 8.22741 7.95808 8.41319 10.2977C7.26467 10.3428 6.13619 10.6163 5.09214 11.1026C4.04809 11.5889 3.10893 12.2784 2.3283 13.1319C0.751756 14.8555 -0.0833975 17.1422 0.00658539 19.4888C0.0965683 21.8353 1.1043 24.0497 2.8081 25.6446C4.5119 27.2395 6.77223 28.0844 9.09179 27.9933H37.4405C39.1802 27.9933 40.8487 27.2942 42.0788 26.0497C43.3089 24.8053 44 23.1174 44 21.3575C44 19.5976 43.3089 17.9097 42.0788 16.6652C40.8487 15.4208 39.1802 14.7216 37.4405 14.7216L37.2898 14.3403Z" fill="url(#paint0_linear_4028_4837)"/>
<path d="M11.6578 30.9066C11.5187 30.8445 11.3681 30.8121 11.2158 30.8114C11.0634 30.8107 10.9126 30.8417 10.7728 30.9025C10.6331 30.9632 10.5075 31.0524 10.4041 31.1643C10.3007 31.2762 10.2217 31.4083 10.1722 31.5524L8.16986 36.59C8.08163 36.7348 8.02613 36.8971 8.00724 37.0655C7.98835 37.234 8.00652 37.4045 8.06051 37.5652C8.1145 37.7259 8.203 37.8728 8.31977 37.9957C8.43655 38.1186 8.57875 38.2145 8.73648 38.2767C8.89422 38.3388 9.06365 38.3657 9.23288 38.3554C9.40211 38.3452 9.56708 38.2981 9.71617 38.2174C9.86526 38.1367 9.99487 38.0244 10.096 37.8883C10.1971 37.7522 10.2672 37.5956 10.3014 37.4296L12.3038 32.392C12.3658 32.2529 12.3982 32.1024 12.3989 31.95C12.3996 31.7977 12.3686 31.6468 12.3078 31.5071C12.2471 31.3674 12.1579 31.2419 12.046 31.1385C11.9341 31.0351 11.8019 30.9561 11.6578 30.9066Z" fill="url(#paint1_linear_4028_4837)"/>
<path d="M28.8401 30.0669C28.6959 30.0157 28.5431 29.9936 28.3903 30.0016C28.2375 30.0097 28.0878 30.0478 27.9498 30.1138C27.8118 30.1798 27.6882 30.2724 27.586 30.3862C27.4839 30.5001 27.4052 30.633 27.3545 30.7773L25.3521 35.8149C25.2454 36.0979 25.2532 36.4113 25.3738 36.6886C25.4944 36.966 25.7183 37.1854 25.998 37.3004C26.2819 37.3915 26.5892 37.3762 26.8626 37.2573C27.136 37.1385 27.3567 36.9242 27.4837 36.6545L29.486 31.6169C29.5955 31.3249 29.5897 31.0021 29.4698 30.7141C29.3498 30.4262 29.1246 30.1948 28.8401 30.0669Z" fill="url(#paint2_linear_4028_4837)"/>
<path d="M19.9249 35.1692C19.7858 35.1071 19.6352 35.0747 19.4829 35.074C19.3305 35.0733 19.1797 35.1043 19.0399 35.165C18.9002 35.2258 18.7746 35.3149 18.6712 35.4268C18.5678 35.5387 18.4888 35.6709 18.4393 35.815L16.437 40.8526C16.3749 40.9917 16.3425 41.1423 16.3418 41.2946C16.3411 41.447 16.3721 41.5978 16.4328 41.7375C16.4936 41.8772 16.5827 42.0028 16.6947 42.1062C16.8066 42.2095 16.9388 42.2885 17.0829 42.338C17.3659 42.4447 17.6793 42.437 17.9567 42.3164C18.2341 42.1958 18.4535 41.9719 18.5685 41.6922L20.5709 36.6546C20.662 36.3708 20.6467 36.0635 20.5278 35.7902C20.409 35.5168 20.1947 35.2961 19.9249 35.1692Z" fill="url(#paint3_linear_4028_4837)"/>
<path d="M35.298 34.7169C35.1588 34.6549 35.0083 34.6225 34.8559 34.6218C34.7035 34.6211 34.5527 34.6521 34.413 34.7128C34.2732 34.7736 34.1477 34.8627 34.0443 34.9746C33.9409 35.0865 33.8619 35.2187 33.8124 35.3628L31.81 40.4004C31.748 40.5395 31.7156 40.6901 31.7149 40.8424C31.7141 40.9948 31.7452 41.1456 31.8059 41.2853C31.8667 41.425 31.9558 41.5506 32.0677 41.6539C32.1797 41.7573 32.3118 41.8363 32.4559 41.8858C32.6001 41.937 32.753 41.9591 32.9058 41.9511C33.0585 41.943 33.2082 41.9049 33.3462 41.8389C33.4842 41.7729 33.6079 41.6803 33.71 41.5665C33.8122 41.4526 33.8909 41.3197 33.9416 41.1754L35.9439 36.1378C36.0317 35.8631 36.0142 35.5655 35.8949 35.3029C35.7755 35.0403 35.5628 34.8315 35.298 34.7169Z" fill="url(#paint4_linear_4028_4837)"/>
<defs>
<linearGradient id="paint0_linear_4028_4837" x1="0.345866" y1="13.5775" x2="44" y2="13.5775" gradientUnits="userSpaceOnUse">
<stop stop-color="#437AFF"/>
<stop offset="1" stop-color="#67A4FE"/>
</linearGradient>
<linearGradient id="paint1_linear_4028_4837" x1="-9.46374" y1="17.4084" x2="14.1746" y2="37.8844" gradientUnits="userSpaceOnUse">
<stop stop-color="#437AFF"/>
<stop offset="1" stop-color="#67A4FE"/>
</linearGradient>
<linearGradient id="paint2_linear_4028_4837" x1="-1.71202" y1="8.43103" x2="21.9263" y2="28.9717" gradientUnits="userSpaceOnUse">
<stop stop-color="#437AFF"/>
<stop offset="1" stop-color="#67A4FE"/>
</linearGradient>
<linearGradient id="paint3_linear_4028_4837" x1="-8.04332" y1="15.7938" x2="15.595" y2="36.2697" gradientUnits="userSpaceOnUse">
<stop stop-color="#437AFF"/>
<stop offset="1" stop-color="#67A4FE"/>
</linearGradient>
<linearGradient id="paint4_linear_4028_4837" x1="-1.13182" y1="7.84975" x2="22.5065" y2="28.3257" gradientUnits="userSpaceOnUse">
<stop stop-color="#437AFF"/>
<stop offset="1" stop-color="#67A4FE"/>
</linearGradient>
</defs>
</svg>
