<svg width="55" height="55" viewBox="0 0 55 55" fill="none" xmlns="http://www.w3.org/2000/svg">
<path d="M27.3595 11.9984C24.3217 11.9984 21.3521 12.8991 18.8262 14.5866C16.3004 16.2741 14.3317 18.6727 13.1692 21.4789C12.0067 24.2852 11.7025 27.3731 12.2951 30.3522C12.8878 33.3313 14.3506 36.0678 16.4987 38.2156C18.6467 40.3635 21.3836 41.8261 24.363 42.4187C27.3425 43.0113 30.4308 42.7072 33.2374 41.5448C36.044 40.3824 38.4428 38.4139 40.1305 35.8884C41.8183 33.3628 42.7191 30.3936 42.7191 27.3561C42.7191 23.283 41.1008 19.3767 38.2204 16.4965C35.3399 13.6164 31.4331 11.9984 27.3595 11.9984Z" fill="url(#paint0_linear_6027_757)"/>
<path d="M27.3588 8.54273C27.8171 8.54273 28.2566 8.36071 28.5807 8.0367C28.9047 7.71269 29.0868 7.27323 29.0868 6.815V1.72775C29.0868 1.26952 28.9047 0.830062 28.5807 0.506047C28.2566 0.182032 27.8171 0 27.3588 0C26.9005 0 26.4611 0.182032 26.137 0.506047C25.813 0.830062 25.6309 1.26952 25.6309 1.72775V6.815C25.6309 7.27323 25.813 7.71269 26.137 8.0367C26.4611 8.36071 26.9005 8.54273 27.3588 8.54273Z" fill="url(#paint1_linear_6027_757)"/>
<path d="M27.3588 46.4573C27.1319 46.4573 26.9072 46.502 26.6976 46.5889C26.488 46.6757 26.2975 46.8029 26.137 46.9634C25.9766 47.1238 25.8492 47.3143 25.7624 47.5239C25.6756 47.7335 25.6309 47.9582 25.6309 48.1851V53.2723C25.6309 53.7305 25.813 54.17 26.137 54.494C26.4611 54.818 26.9005 55.0001 27.3588 55.0001C27.8171 55.0001 28.2566 54.818 28.5807 54.494C28.9047 54.17 29.0868 53.7305 29.0868 53.2723V48.1851C29.0868 47.7269 28.9047 47.2874 28.5807 46.9634C28.2566 46.6394 27.8171 46.4573 27.3588 46.4573Z" fill="url(#paint2_linear_6027_757)"/>
<path d="M52.9899 25.6283H47.8061C47.3478 25.6283 46.9083 25.8103 46.5842 26.1343C46.2602 26.4584 46.0781 26.8978 46.0781 27.356C46.0781 27.8143 46.2602 28.2537 46.5842 28.5777C46.9083 28.9018 47.3478 29.0838 47.8061 29.0838H52.9899C53.4482 29.0838 53.8877 28.9018 54.2117 28.5777C54.5358 28.2537 54.7179 27.8143 54.7179 27.356C54.7179 26.8978 54.5358 26.4584 54.2117 26.1343C53.8877 25.8103 53.4482 25.6283 52.9899 25.6283Z" fill="url(#paint3_linear_6027_757)"/>
<path d="M8.54374 27.2603C8.54374 26.8021 8.36171 26.3626 8.03765 26.0386C7.7136 25.7146 7.27407 25.5325 6.81579 25.5325H1.72795C1.26967 25.5325 0.830142 25.7146 0.506089 26.0386C0.182035 26.3626 0 26.8021 0 27.2603C0 27.7185 0.182035 28.158 0.506089 28.482C0.830142 28.806 1.26967 28.988 1.72795 28.988H6.81579C7.27407 28.988 7.7136 28.806 8.03765 28.482C8.36171 28.158 8.54374 27.7185 8.54374 27.2603Z" fill="url(#paint4_linear_6027_757)"/>
<path d="M41.8558 14.5899C42.3101 14.5568 42.7444 14.3898 43.1038 14.11L46.6557 10.4625C46.8812 10.13 46.9837 9.72933 46.9457 9.32939C46.9077 8.92944 46.7315 8.55525 46.4474 8.27118C46.1633 7.9871 45.789 7.81091 45.389 7.77289C44.989 7.73488 44.5883 7.83742 44.2558 8.06289L40.6079 11.6144C40.3552 11.856 40.1818 12.1685 40.1105 12.5108C40.0392 12.853 40.0735 13.2088 40.2087 13.5312C40.3439 13.8536 40.5737 14.1273 40.8677 14.3164C41.1618 14.5054 41.5064 14.6008 41.8558 14.5899Z" fill="url(#paint5_linear_6027_757)"/>
<path d="M11.6165 40.602L8.06465 44.2495C7.818 44.4855 7.64673 44.7892 7.57255 45.1224C7.49836 45.4556 7.52453 45.8033 7.64776 46.1216C7.771 46.4399 7.98576 46.7145 8.26496 46.9109C8.54416 47.1073 8.8753 47.2166 9.21657 47.2251C9.45292 47.2195 9.68568 47.1656 9.90033 47.0665C10.115 46.9675 10.307 46.8254 10.4646 46.6492L14.1124 43.0977C14.3927 42.7421 14.5451 42.3026 14.5451 41.8499C14.5451 41.3971 14.3927 40.9576 14.1124 40.602C13.7743 40.2849 13.3281 40.1083 12.8645 40.1083C12.4009 40.1083 11.9546 40.2849 11.6165 40.602Z" fill="url(#paint6_linear_6027_757)"/>
<path d="M43.1026 40.6022C42.9388 40.4384 42.7443 40.3084 42.5301 40.2197C42.316 40.131 42.0865 40.0854 41.8547 40.0854C41.6229 40.0854 41.3934 40.131 41.1793 40.2197C40.9652 40.3084 40.7707 40.4384 40.6068 40.6022C40.4429 40.7661 40.3129 40.9606 40.2242 41.1747C40.1355 41.3888 40.0898 41.6183 40.0898 41.8501C40.0898 42.0818 40.1355 42.3113 40.2242 42.5254C40.3129 42.7395 40.4429 42.934 40.6068 43.0979L44.2546 46.6494C44.4122 46.8256 44.6042 46.9677 44.8189 47.0667C45.0335 47.1658 45.2662 47.2197 45.5026 47.2253C45.8438 47.2168 46.175 47.1075 46.4542 46.9111C46.7334 46.7147 46.9481 46.4401 47.0714 46.1218C47.1946 45.8034 47.2208 45.4558 47.1466 45.1226C47.0724 44.7894 46.9012 44.4857 46.6546 44.2497L43.1026 40.6022Z" fill="url(#paint7_linear_6027_757)"/>
<path d="M11.6153 14.11C11.9646 14.4073 12.4049 14.5766 12.8633 14.5899C13.2128 14.6008 13.5573 14.5054 13.8513 14.3164C14.1454 14.1273 14.3753 13.8536 14.5105 13.5312C14.6457 13.2088 14.6799 12.853 14.6087 12.5108C14.5374 12.1685 14.3639 11.856 14.1113 11.6144L10.4634 8.06289C10.1309 7.83742 9.73009 7.73488 9.33009 7.77289C8.9301 7.81091 8.55589 7.9871 8.27178 8.27118C7.98767 8.55525 7.8114 8.92944 7.77338 9.32939C7.73536 9.72933 7.83798 10.13 8.06348 10.4625L11.6153 14.11Z" fill="url(#paint8_linear_6027_757)"/>
<defs>
<linearGradient id="paint0_linear_6027_757" x1="11.04" y1="2.01583" x2="39.1625" y2="45.7884" gradientUnits="userSpaceOnUse">
<stop stop-color="#FAB300"/>
<stop offset="1" stop-color="#F6DB00"/>
</linearGradient>
<linearGradient id="paint1_linear_6027_757" x1="21.503" y1="-4.79929" x2="49.6254" y2="38.9733" gradientUnits="userSpaceOnUse">
<stop stop-color="#FAB300"/>
<stop offset="1" stop-color="#F6DB00"/>
</linearGradient>
<linearGradient id="paint2_linear_6027_757" x1="0.575555" y1="8.73495" x2="28.698" y2="52.5075" gradientUnits="userSpaceOnUse">
<stop stop-color="#FAB300"/>
<stop offset="1" stop-color="#F6DB00"/>
</linearGradient>
<linearGradient id="paint3_linear_6027_757" x1="27.3586" y1="-8.44672" x2="55.4811" y2="35.2299" gradientUnits="userSpaceOnUse">
<stop stop-color="#FAB300"/>
<stop offset="1" stop-color="#F6DB00"/>
</linearGradient>
<linearGradient id="paint4_linear_6027_757" x1="-5.27984" y1="12.4784" x2="22.8427" y2="56.251" gradientUnits="userSpaceOnUse">
<stop stop-color="#FAB300"/>
<stop offset="1" stop-color="#F6DB00"/>
</linearGradient>
<linearGradient id="paint5_linear_6027_757" x1="30.0482" y1="-10.1744" x2="58.1707" y2="33.598" gradientUnits="userSpaceOnUse">
<stop stop-color="#FAB300"/>
<stop offset="1" stop-color="#F6DB00"/>
</linearGradient>
<linearGradient id="paint6_linear_6027_757" x1="-7.87097" y1="14.206" x2="20.2515" y2="57.9786" gradientUnits="userSpaceOnUse">
<stop stop-color="#FAB300"/>
<stop offset="1" stop-color="#F6DB00"/>
</linearGradient>
<linearGradient id="paint7_linear_6027_757" x1="15.1677" y1="-0.671596" x2="43.2901" y2="43.1008" gradientUnits="userSpaceOnUse">
<stop stop-color="#FAB300"/>
<stop offset="1" stop-color="#F6DB00"/>
</linearGradient>
<linearGradient id="paint8_linear_6027_757" x1="6.91145" y1="4.60741" x2="35.0338" y2="48.3801" gradientUnits="userSpaceOnUse">
<stop stop-color="#FAB300"/>
<stop offset="1" stop-color="#F6DB00"/>
</linearGradient>
</defs>
</svg>
