<svg width="44" height="28" viewBox="0 0 44 28" fill="none" xmlns="http://www.w3.org/2000/svg">
<path d="M37.2898 14.3403C37.3944 13.0307 37.1629 11.716 36.6177 10.5236C36.0725 9.33115 35.232 8.30142 34.1778 7.53415C33.1236 6.76688 31.8913 6.28811 30.6004 6.14422C29.3096 6.00033 28.0038 6.19619 26.8098 6.71285C26.1232 4.47078 24.6432 2.56373 22.6532 1.35687C20.6632 0.150007 18.3031 -0.271837 16.0248 0.172126C13.7465 0.61609 11.7102 1.89466 10.3057 3.76298C8.90129 5.63131 8.22741 7.95808 8.41319 10.2977C7.26467 10.3428 6.13619 10.6163 5.09214 11.1026C4.04809 11.5889 3.10893 12.2784 2.3283 13.1319C0.751756 14.8555 -0.0833975 17.1422 0.00658539 19.4888C0.0965683 21.8353 1.1043 24.0497 2.8081 25.6446C4.5119 27.2395 6.77223 28.0844 9.09179 27.9933H37.4405C39.1802 27.9933 40.8487 27.2942 42.0788 26.0497C43.3089 24.8053 44 23.1174 44 21.3575C44 19.5976 43.3089 17.9097 42.0788 16.6652C40.8487 15.4208 39.1802 14.7216 37.4405 14.7216L37.2898 14.3403Z" fill="url(#paint0_linear_4028_4833)"/>
<defs>
<linearGradient id="paint0_linear_4028_4833" x1="0.345866" y1="13.5775" x2="44" y2="13.5775" gradientUnits="userSpaceOnUse">
<stop stop-color="#437AFF"/>
<stop offset="1" stop-color="#67A4FE"/>
</linearGradient>
</defs>
</svg>
