<svg width="52" height="41" viewBox="0 0 52 41" fill="none" xmlns="http://www.w3.org/2000/svg">
<path d="M42.5688 20.8296C42.5829 22.4045 42.2743 23.9656 41.6621 25.4166C41.0499 26.8677 40.1469 28.178 39.0089 29.2669C38.4598 28.5729 37.7574 28.0154 36.9568 27.638C36.1562 27.2606 35.2792 27.0736 34.3943 27.0917C34.5432 25.942 34.3863 24.7733 33.9393 23.7037C33.4923 22.634 32.7711 21.7011 31.8484 20.9991C30.9256 20.2971 29.8341 19.8509 28.6838 19.7054C27.5335 19.5599 26.3652 19.7203 25.2968 20.1705C24.945 19.0407 24.3577 17.9984 23.5737 17.1121C22.7896 16.2259 21.8266 15.5159 20.748 15.029C22.0203 12.7836 24.0012 11.0234 26.3807 10.0238C28.7603 9.0242 31.4041 8.84165 33.8985 9.50473C36.3928 10.1678 38.5969 11.6391 40.1658 13.6883C41.7347 15.7375 42.5798 18.249 42.5688 20.8296Z" fill="url(#paint0_linear_4028_4822)"/>
<path d="M30.7696 6.45977C30.4311 6.4602 30.1053 6.33038 29.8599 6.09723C29.6144 5.86408 29.4681 5.54546 29.4512 5.20737V1.31832C29.4512 0.96868 29.5901 0.63336 29.8373 0.386126C30.0846 0.138893 30.4199 0 30.7696 0C31.1193 0 31.4547 0.138893 31.702 0.386126C31.9492 0.63336 32.0881 0.96868 32.0881 1.31832V5.20737C32.0712 5.54546 31.9248 5.86408 31.6794 6.09723C31.4339 6.33038 31.1082 6.4602 30.7696 6.45977Z" fill="url(#paint1_linear_4028_4822)"/>
<path d="M50.2817 22.1479H46.3263C45.9766 22.1479 45.6412 22.009 45.394 21.7618C45.1467 21.5146 45.0078 21.1793 45.0078 20.8296C45.0078 20.48 45.1467 20.1447 45.394 19.8974C45.6412 19.6502 45.9766 19.5113 46.3263 19.5113H50.2817C50.6314 19.5113 50.9668 19.6502 51.214 19.8974C51.4613 20.1447 51.6002 20.48 51.6002 20.8296C51.6002 21.1793 51.4613 21.5146 51.214 21.7618C50.9668 22.009 50.6314 22.1479 50.2817 22.1479Z" fill="url(#paint2_linear_4028_4822)"/>
<path d="M41.7785 11.1399C41.5204 11.1362 41.2691 11.057 41.0557 10.9119C40.8422 10.7668 40.6761 10.5622 40.5778 10.3236C40.4796 10.085 40.4535 9.82279 40.5029 9.5695C40.5522 9.31621 40.6748 9.08298 40.8555 8.89872L43.6244 6.13024C43.8783 5.93984 44.1923 5.8474 44.5089 5.8699C44.8255 5.89239 45.1233 6.02831 45.3478 6.2527C45.5722 6.4771 45.7081 6.7749 45.7306 7.09145C45.7531 7.40799 45.6607 7.72202 45.4702 7.97589L42.7014 10.7444C42.458 10.9928 42.1262 11.1349 41.7785 11.1399Z" fill="url(#paint3_linear_4028_4822)"/>
<path d="M44.5467 35.9244C44.199 35.9194 43.8672 35.7773 43.6238 35.5289L40.855 32.7604C40.7271 32.6431 40.625 32.5005 40.5551 32.3416C40.4853 32.1827 40.4492 32.0111 40.4492 31.8376C40.4492 31.664 40.4853 31.4924 40.5551 31.3335C40.625 31.1747 40.7271 31.0321 40.855 30.9147C41.1088 30.6877 41.4374 30.5623 41.7779 30.5623C42.1184 30.5623 42.447 30.6877 42.7008 30.9147L45.4697 33.6832C45.6503 33.8675 45.773 34.1007 45.8223 34.354C45.8717 34.6073 45.8456 34.8695 45.7473 35.1081C45.6491 35.3467 45.483 35.5513 45.2695 35.6964C45.0561 35.8415 44.8048 35.9207 44.5467 35.9244Z" fill="url(#paint4_linear_4028_4822)"/>
<path d="M19.7591 11.1399C19.4114 11.1349 19.0796 10.9928 18.8362 10.7444L16.1992 7.97589C16.0088 7.72202 15.9164 7.40799 15.9389 7.09145C15.9614 6.7749 16.0973 6.4771 16.3217 6.2527C16.5461 6.02831 16.844 5.89239 17.1606 5.8699C17.4771 5.8474 17.7912 5.93984 18.0451 6.13024L20.8139 8.89872C21.0043 9.09072 21.131 9.3366 21.1769 9.60303C21.2228 9.86947 21.1857 10.1436 21.0706 10.3882C20.9554 10.6328 20.7679 10.8362 20.5333 10.9706C20.2987 11.1051 20.0284 11.1642 19.7591 11.1399Z" fill="url(#paint5_linear_4028_4822)"/>
<path d="M32.2193 29.5305C32.4037 28.3388 32.2576 27.1192 31.7968 26.0048C31.3361 24.8903 30.5783 23.9235 29.6062 23.2098C28.634 22.496 27.4846 22.0626 26.2832 21.9568C25.0817 21.8509 23.8743 22.0766 22.7922 22.6094C22.1952 20.6601 20.8966 19.0013 19.1475 17.9537C17.3984 16.9061 15.3229 16.5441 13.3224 16.9376C11.3218 17.3311 9.53817 18.4522 8.31625 20.0842C7.09433 21.7162 6.52089 23.7432 6.70678 25.7733C4.8047 26.009 3.06047 26.9502 1.81947 28.4107C0.578476 29.8711 -0.0688151 31.7443 0.00580223 33.6592C0.0804196 35.5742 0.871517 37.3913 2.22239 38.7508C3.57327 40.1103 5.38546 40.913 7.30012 40.9999H32.0875C33.6086 40.9999 35.0674 40.3958 36.143 39.3203C37.2186 38.2448 37.8229 36.7862 37.8229 35.2652C37.8229 33.7443 37.2186 32.2857 36.143 31.2102C35.0674 30.1347 33.6086 29.5305 32.0875 29.5305H32.2193Z" fill="url(#paint6_linear_4028_4822)"/>
<defs>
<linearGradient id="paint0_linear_4028_4822" x1="17.6496" y1="3.88922" x2="43.3573" y2="26.04" gradientUnits="userSpaceOnUse">
<stop stop-color="#FAB300"/>
<stop offset="1" stop-color="#F6DB00"/>
</linearGradient>
<linearGradient id="paint1_linear_4028_4822" x1="23.518" y1="-2.90031" x2="49.2257" y2="19.2506" gradientUnits="userSpaceOnUse">
<stop stop-color="#FAB300"/>
<stop offset="1" stop-color="#F6DB00"/>
</linearGradient>
<linearGradient id="paint2_linear_4028_4822" x1="22.33" y1="-1.58183" x2="48.0377" y2="20.6349" gradientUnits="userSpaceOnUse">
<stop stop-color="#FAB300"/>
<stop offset="1" stop-color="#F6DB00"/>
</linearGradient>
<linearGradient id="paint3_linear_4028_4822" x1="26.2863" y1="-6.13014" x2="51.994" y2="16.0208" gradientUnits="userSpaceOnUse">
<stop stop-color="#FAB300"/>
<stop offset="1" stop-color="#F6DB00"/>
</linearGradient>
<linearGradient id="paint4_linear_4028_4822" x1="14.0239" y1="8.1078" x2="39.7316" y2="30.2587" gradientUnits="userSpaceOnUse">
<stop stop-color="#FAB300"/>
<stop offset="1" stop-color="#F6DB00"/>
</linearGradient>
<linearGradient id="paint5_linear_4028_4822" x1="15.7378" y1="6.13024" x2="41.3796" y2="28.347" gradientUnits="userSpaceOnUse">
<stop stop-color="#FAB300"/>
<stop offset="1" stop-color="#F6DB00"/>
</linearGradient>
<linearGradient id="paint6_linear_4028_4822" x1="-0.083389" y1="28.8714" x2="38.0866" y2="28.8714" gradientUnits="userSpaceOnUse">
<stop stop-color="#437AFF"/>
<stop offset="1" stop-color="#67A4FE"/>
</linearGradient>
</defs>
</svg>
