<svg width="24" height="10" viewBox="0 0 24 10" fill="none" xmlns="http://www.w3.org/2000/svg">
<g clip-path="url(#clip0_109_781)">
<path d="M2.50001 0H21.5C23.433 0 24 0.921755 24 2.05883V7.94117C24 9.07822 23.433 10 21.5 10H2.50001C0.566981 9.99997 0 9.07822 0 7.94117V2.0588C0 0.921754 0.566981 0 2.50001 0Z" fill="#2196F3"/>
<path d="M7.49969 7.7696C7.29739 7.7696 7.10683 7.68409 6.98546 7.53883L4.28566 4.30831V7.1927C4.28566 7.5113 3.99784 7.7696 3.64283 7.7696C3.28782 7.7696 3 7.5113 3 7.1927V2.57767C3 2.25907 3.28782 2.00077 3.64283 2.00077C3.84513 2.00077 4.03569 2.08628 4.15706 2.23154L6.85686 5.46205V2.57767C6.85686 2.25907 7.14468 2.00077 7.49969 2.00077C7.8547 2.00077 8.14252 2.25907 8.14252 2.57767V7.1927C8.14234 7.44088 7.96523 7.66116 7.70284 7.73958C7.63739 7.75948 7.56881 7.7696 7.49969 7.7696Z" fill="#FAFAFA"/>
<path d="M12.6422 7.76906H10.071C9.71595 7.76906 9.42813 7.51076 9.42813 7.19216V2.57713C9.42813 2.25853 9.71595 2.00024 10.071 2.00024H12.6422C12.9972 2.00024 13.2851 2.25853 13.2851 2.57713C13.2851 2.89574 12.9972 3.15403 12.6422 3.15403H10.7138V6.61532H12.6422C12.9972 6.61532 13.2851 6.87362 13.2851 7.19222C13.285 7.51082 12.9972 7.76906 12.6422 7.76906Z" fill="#FAFAFA"/>
<path d="M12.6422 5.46177H10.071C9.71595 5.46177 9.42813 5.20347 9.42813 4.88487C9.42813 4.56627 9.71595 4.30797 10.071 4.30797H12.6422C12.9972 4.30797 13.2851 4.56627 13.2851 4.88487C13.285 5.20347 12.9972 5.46177 12.6422 5.46177Z" fill="#FAFAFA"/>
<path d="M19.0703 7.76928C18.7932 7.76961 18.5471 7.61061 18.4596 7.3747L17.7847 5.55525L17.1097 7.37475C17.0324 7.62678 16.7647 7.79265 16.4746 7.7682C16.1891 7.75847 15.945 7.58081 15.8755 7.33208L14.5899 2.71705C14.504 2.4077 14.7138 2.0944 15.0585 2.01728C15.4032 1.94016 15.7524 2.12847 15.8383 2.43782L16.5878 5.1307L17.1753 3.5489C17.3281 3.24652 17.725 3.11256 18.0619 3.24966C18.2098 3.30985 18.3283 3.41618 18.3954 3.5489L18.9829 5.1307L19.7324 2.43782C19.8183 2.12847 20.1674 1.94016 20.5121 2.01728C20.8568 2.0944 21.0667 2.40764 20.9807 2.71705L19.6951 7.33208C19.6257 7.58081 19.3815 7.75847 19.0961 7.7682L19.0703 7.76928Z" fill="#FAFAFA"/>
</g>
<defs>
<clipPath id="clip0_109_781">
<rect width="24" height="10" fill="white"/>
</clipPath>
</defs>
</svg>
