<svg width="162" height="45" viewBox="0 0 162 45" fill="none" xmlns="http://www.w3.org/2000/svg">
<g clip-path="url(#clip0_109_946)">
<path d="M5.31392 7.63867C6.03768 13.3544 8.68214 18.0822 12.184 22.399C14.092 24.7317 16.224 26.869 18.549 28.78C19.1717 29.2966 18.9953 29.2552 19.5332 28.8075C23.254 25.7111 26.504 22.1907 29.0395 18.0358C30.9245 14.9467 32.2606 11.6477 32.7535 8.03338C32.7686 7.922 32.792 7.81175 32.8213 7.64515C35.5239 8.84422 37.4261 10.6775 37.9636 13.6823C38.3481 15.8319 37.9683 17.9129 37.3301 19.9611C36.4197 22.8823 35.0192 25.5708 33.3948 28.1404C29.5682 34.1933 24.9857 39.6116 19.7417 44.4671C19.6581 44.5446 19.5727 44.62 19.4866 44.6947C19.0054 45.1123 19.086 45.098 18.6131 44.6743C15.2604 41.6691 12.2591 38.3322 9.45714 34.8101C6.95419 31.6639 4.66277 28.3726 2.81179 24.7888C1.66697 22.5722 0.709755 20.2807 0.24666 17.8107C-0.0683412 16.1305 -0.134088 14.4442 0.363001 12.7866C1.12179 10.2563 2.90825 8.70589 5.31392 7.63867Z" fill="white"/>
<path d="M160.01 36.2612C158.63 38.2092 156.893 39.5427 154.732 40.3174C153.063 40.9156 151.332 41.1219 149.572 41.0902C147.533 41.0532 145.543 40.7323 143.693 39.8212C139.923 37.9656 137.724 34.9359 137.117 30.7603C136.772 28.3899 136.918 26.0372 137.872 23.8266C139.793 19.372 143.191 16.8931 148.012 16.4303C150.054 16.2341 152.071 16.3918 153.953 17.2538C157.923 19.0722 160.3 22.163 161.008 26.5113C161.235 27.9592 161.237 29.4339 161.013 30.8823C160.916 31.5375 160.92 31.5409 160.268 31.5409C155.27 31.5417 150.27 31.5419 145.271 31.5413H144.542C144.394 31.7279 144.507 31.8666 144.571 32.0038C145.209 33.3902 146.317 34.1925 147.758 34.5556C148.951 34.8654 150.198 34.9077 151.409 34.6794C152.456 34.4781 153.393 34.0381 154.168 33.2848C154.325 33.1325 154.44 33.0294 154.688 33.1748C156.431 34.1998 158.183 35.2056 160.01 36.2612ZM154.223 26.2818C153.691 24.4417 152.668 23.2131 150.858 22.7724C149.882 22.5452 148.87 22.5322 147.888 22.7342C147.261 22.8451 146.664 23.0858 146.135 23.4409C145.138 24.1238 144.574 25.0894 144.254 26.2818H154.223Z" fill="white"/>
<path d="M59.6615 17.7899C59.6615 17.6525 59.6533 17.5145 59.6629 17.3779C59.6812 17.1237 59.592 17.007 59.3171 17.0083C57.2259 17.0152 55.1349 17.0152 53.0438 17.0083C52.7853 17.0077 52.6754 17.0935 52.681 17.3621C52.6931 17.9046 52.685 18.4479 52.685 19.0549C52.4183 18.978 52.3345 18.833 52.2239 18.7232C51.3847 17.8779 50.3556 17.2485 49.2237 16.8882C47.1544 16.219 44.935 16.1803 42.844 16.777C42.3039 16.9287 42.0911 16.9925 41.969 17.2302C41.8059 18.5629 41.5164 19.8768 41.1041 21.1536C40.1779 24.126 38.7886 27.0256 36.7317 30.2794C36.298 30.9655 35.8534 31.6458 35.3978 32.3207C35.3287 32.423 35.2827 32.5395 35.2633 32.6618C35.2439 32.7842 35.2516 32.9093 35.2857 33.0283C35.3496 33.2665 35.4274 33.5006 35.5183 33.7297C36.9117 37.0839 39.1966 39.5177 42.7001 40.651C44.3091 41.1708 45.965 41.1983 47.6237 40.9511C49.4746 40.6756 51.0999 39.9264 52.4074 38.546C52.4647 38.4848 52.52 38.395 52.6843 38.4869C52.6843 38.9285 52.681 39.401 52.685 39.8735C52.6898 40.4353 52.6926 40.4422 53.2368 40.4429C55.1233 40.4463 57.0097 40.4463 58.8962 40.4429C59.7426 40.4415 59.6608 40.5451 59.6608 39.6758C59.6622 32.3803 59.6623 25.0849 59.6615 17.7899ZM52.4975 30.3791C51.9566 32.6914 50.1144 34.2503 47.7506 34.413C46.9797 34.4811 46.2029 34.4184 45.4527 34.2277C43.3105 33.6425 41.8333 31.8328 41.6505 29.5624C41.6287 29.2891 41.6245 29.0151 41.6123 28.7411C41.5981 28.1001 41.6753 27.4604 41.8414 26.8415C42.4376 24.6843 44.2469 23.207 46.499 23.0443C47.2724 22.9887 48.0465 23.0038 48.7982 23.2201C50.6683 23.76 51.9027 24.9577 52.4353 26.8532C52.7572 28.0035 52.7786 29.2179 52.4975 30.3791Z" fill="white"/>
<path d="M119.141 19.0387C119.268 18.9805 119.318 18.9732 119.343 18.9438C121.188 16.7755 123.652 16.2874 126.308 16.3799C130.77 16.5353 133.964 19.9749 134.413 24.4161C134.489 25.2125 134.525 26.0122 134.519 26.8122C134.515 31.0415 134.514 35.2709 134.517 39.5004C134.517 39.6147 134.518 39.729 134.517 39.8434C134.511 40.434 134.51 40.4391 133.919 40.4399C132.011 40.4424 130.102 40.4423 128.193 40.4393C127.579 40.4381 127.519 40.5897 127.519 39.7818C127.522 35.6667 127.522 31.5516 127.52 27.4363C127.52 26.7955 127.495 26.1575 127.313 25.5355C127.114 24.8267 126.707 24.1948 126.147 23.7214C125.586 23.2482 124.897 22.9556 124.169 22.8815C123.559 22.8033 122.941 22.8225 122.336 22.9387C120.695 23.2763 119.579 24.4784 119.273 26.2148C119.18 26.7554 119.134 27.3033 119.137 27.852C119.144 31.7614 119.145 35.6707 119.141 39.5801C119.133 39.7171 119.134 39.8543 119.143 39.9913C119.187 40.3614 119.015 40.4495 118.672 40.4472C116.672 40.434 114.673 40.4433 112.673 40.4391C112.173 40.4381 112.168 40.4284 112.164 39.8946C112.159 39.1859 112.163 38.4772 112.163 37.7684V18.0158C112.163 17.8786 112.164 17.7415 112.163 17.6042C112.159 16.9716 112.142 17.0066 112.754 17.0071C114.709 17.009 116.663 17.0059 118.617 17.0092C119.13 17.0101 119.134 17.0175 119.139 17.5339C119.145 18.0106 119.141 18.4873 119.141 19.0387Z" fill="white"/>
<path d="M82.7031 10.3363C82.7031 11.6095 82.7031 12.8431 82.7031 14.0768C82.7031 14.9002 82.7179 15.7239 82.6961 16.5469C82.6869 16.8962 82.7813 17.0344 83.1483 17.0184C83.761 16.9917 84.3756 17.0112 84.9895 17.0112C85.626 17.0114 86.2625 17.009 86.8991 17.0121C87.4849 17.0147 87.4898 17.0173 87.4905 17.6083C87.493 19.484 87.4929 21.3595 87.4901 23.2352C87.4899 23.3922 87.5219 23.5554 87.4356 23.7068C87.2196 23.8012 86.9891 23.7579 86.7647 23.7587C85.5598 23.7633 84.3548 23.767 83.15 23.757C82.8538 23.7545 82.6953 23.8081 82.6971 24.1643C82.7108 26.7945 82.6926 29.425 82.7169 32.0553C82.7253 32.953 83.2043 33.4968 84.0727 33.7093C84.4913 33.8193 84.9215 33.8774 85.3539 33.8826C85.9449 33.88 86.5361 33.8926 87.1267 33.8798C87.3791 33.8743 87.4958 33.9412 87.4947 34.2197C87.4871 36.1181 87.487 38.0165 87.4943 39.915C87.4951 40.1795 87.3809 40.2733 87.1328 40.2948C85.0891 40.4716 83.0513 40.5326 81.0194 40.1409C78.2048 39.5986 76.6357 37.8287 76.0343 35.0866C75.8201 34.0797 75.7167 33.0522 75.7259 32.0227C75.7307 29.4837 75.7305 26.9448 75.7252 24.4059C75.7245 23.7674 75.7205 23.764 75.0993 23.7617C74.2128 23.7584 73.3257 23.7456 72.4397 23.7681C72.0755 23.7774 71.9783 23.6482 71.9809 23.2952C71.9953 21.3511 71.9955 19.4069 71.9815 17.4626C71.979 17.0972 72.1083 16.9944 72.458 17.0043C73.2531 17.0267 74.0492 17.0169 74.8449 17.01C75.8773 17.001 75.7156 17.1348 75.7237 16.1576C75.7332 15.037 75.7343 13.916 75.7204 12.7954C75.7167 12.5025 75.7917 12.3528 76.0941 12.264C78.2286 11.6373 80.3572 10.9901 82.4882 10.351C82.5593 10.3404 82.6312 10.3355 82.7031 10.3363Z" fill="white"/>
<path d="M90.2889 23.3039C90.2889 17.9306 90.2889 12.5572 90.2889 7.18385C90.2984 7.02406 90.2973 6.86382 90.2857 6.70415C90.2347 6.3201 90.4207 6.24986 90.7602 6.252C92.7828 6.26473 94.8053 6.26474 96.828 6.25204C97.1844 6.24974 97.3299 6.36513 97.2835 6.72387C97.2739 6.86074 97.273 6.99809 97.2809 7.13507C97.2809 17.9503 97.2803 28.7656 97.279 39.5809C97.2788 40.5635 97.4107 40.4355 96.3987 40.439C94.5806 40.4453 92.7625 40.4456 90.9444 40.4396C90.3169 40.4385 90.2878 40.568 90.288 39.7668C90.2897 34.2792 90.29 28.7915 90.2889 23.3039Z" fill="white"/>
<path d="M62.9201 23.3809C62.9201 17.9856 62.9201 12.5902 62.9201 7.19483C62.9201 7.05766 62.918 6.92045 62.9205 6.78333C62.9299 6.27264 62.9304 6.26466 63.4484 6.26374C65.4025 6.26021 67.3567 6.2598 69.3107 6.26251C69.9392 6.26268 69.8978 6.21864 69.8978 6.85849C69.8977 11.4537 69.8976 16.0489 69.8977 20.6441C69.8977 26.9082 69.8977 33.1724 69.8977 39.4364C69.8977 39.5736 69.8989 39.7107 69.8975 39.848C69.8911 40.438 69.8908 40.4427 69.3035 40.4434C67.372 40.4456 65.4406 40.4456 63.5093 40.4432C62.9267 40.4425 62.9212 40.4375 62.9211 39.8414C62.9195 34.3546 62.9193 28.8677 62.9201 23.3809Z" fill="white"/>
<path d="M108.211 28.7437C108.211 32.3576 108.211 35.9715 108.211 39.5853C108.203 39.7224 108.204 39.8598 108.213 39.9968C108.261 40.3742 108.074 40.4516 107.738 40.4496C105.715 40.4382 103.692 40.4382 101.668 40.4497C101.354 40.4514 101.193 40.3727 101.232 40.0308C101.24 39.8937 101.241 39.7564 101.234 39.6193C101.234 32.3686 101.234 25.1179 101.234 17.8672C101.241 17.7301 101.241 17.5927 101.231 17.4559C101.185 17.0826 101.361 17.0021 101.703 17.0044C103.68 17.0181 105.658 17.0094 107.636 17.012C108.205 17.0129 108.21 17.0186 108.21 17.6274C108.212 21.3327 108.212 25.0382 108.211 28.7437Z" fill="white"/>
<path d="M104.705 6.27344C103.879 6.27344 103.071 6.52021 102.384 6.98251C101.697 7.44483 101.161 8.10193 100.845 8.87072C100.529 9.63952 100.446 10.4855 100.607 11.3016C100.768 12.1178 101.166 12.8675 101.751 13.4559C102.335 14.0443 103.08 14.445 103.89 14.6073C104.701 14.7697 105.541 14.6864 106.304 14.368C107.068 14.0495 107.72 13.5102 108.179 12.8183C108.638 12.1264 108.884 11.313 108.884 10.4808C108.884 9.92831 108.775 9.38119 108.566 8.87072C108.356 8.36026 108.048 7.89645 107.66 7.50575C107.272 7.11506 106.811 6.80514 106.304 6.59371C105.797 6.38227 105.254 6.27344 104.705 6.27344ZM106.966 10.9882C106.966 11.0159 106.961 11.0435 106.95 11.0691C106.94 11.0948 106.924 11.1181 106.905 11.1378C106.885 11.1574 106.862 11.173 106.836 11.1836C106.811 11.1943 106.784 11.1997 106.756 11.1997H105.629C105.574 11.1997 105.52 11.222 105.481 11.2617C105.441 11.3014 105.419 11.3552 105.419 11.4113V12.546C105.419 12.5738 105.414 12.6013 105.403 12.627C105.393 12.6526 105.377 12.676 105.358 12.6956C105.338 12.7153 105.315 12.7308 105.289 12.7415C105.264 12.7521 105.237 12.7576 105.209 12.7576H104.201C104.174 12.7576 104.146 12.7521 104.121 12.7415C104.095 12.7308 104.072 12.7153 104.053 12.6956C104.033 12.676 104.018 12.6526 104.007 12.627C103.997 12.6013 103.991 12.5738 103.991 12.546V11.4113C103.991 11.3835 103.986 11.356 103.975 11.3303C103.965 11.3047 103.949 11.2813 103.93 11.2617C103.91 11.2421 103.887 11.2265 103.862 11.2158C103.836 11.2052 103.809 11.1997 103.781 11.1997H102.654C102.599 11.1997 102.545 11.1774 102.506 11.1378C102.466 11.0981 102.444 11.0443 102.444 10.9882V9.97349C102.444 9.91737 102.466 9.86355 102.506 9.82387C102.545 9.7842 102.599 9.76191 102.654 9.76191H103.781C103.809 9.76191 103.836 9.75642 103.862 9.74579C103.887 9.73516 103.91 9.71958 103.93 9.69993C103.949 9.68029 103.965 9.65696 103.975 9.63129C103.986 9.60562 103.991 9.57811 103.991 9.55032V8.41565C103.991 8.38786 103.997 8.36035 104.007 8.33468C104.018 8.30901 104.033 8.28568 104.053 8.26604C104.072 8.24639 104.095 8.23081 104.121 8.22018C104.146 8.20955 104.174 8.20406 104.201 8.20406H105.209C105.237 8.20406 105.264 8.20953 105.289 8.22017C105.315 8.2308 105.338 8.24639 105.358 8.26604C105.377 8.28568 105.393 8.30901 105.403 8.33468C105.414 8.36035 105.419 8.38786 105.419 8.41565V9.55032C105.419 9.60643 105.441 9.66025 105.481 9.69993C105.52 9.7396 105.574 9.76191 105.629 9.76191H106.756C106.784 9.76189 106.811 9.76738 106.836 9.77801C106.862 9.78864 106.885 9.80422 106.905 9.82387C106.924 9.84353 106.94 9.86684 106.95 9.89252C106.961 9.91818 106.966 9.9457 106.966 9.97349V10.9882Z" fill="#02B0EA"/>
<path d="M5.31755 7.63867C6.04131 13.3544 8.68577 18.0822 12.1876 22.399C14.0957 24.7317 16.2277 26.869 18.5527 28.78C19.1754 29.2966 18.9989 29.2552 19.5367 28.8075C23.2575 25.7111 26.5076 22.1907 29.043 18.0358C30.9282 14.9467 32.2643 11.6477 32.757 8.03338C32.7722 7.922 32.7956 7.81175 32.825 7.64515C35.5276 8.84422 37.4297 10.6775 37.9671 13.6823C38.3516 15.8319 37.972 17.9129 37.3336 19.9611C36.4234 22.8823 35.0228 25.5708 33.3983 28.1404C29.5719 34.1933 24.9894 39.6116 19.7453 44.4671C19.6617 44.5446 19.5764 44.62 19.4902 44.6947C19.0089 45.1123 19.0895 45.098 18.6168 44.6743C15.2641 41.6691 12.2627 38.3322 9.46077 34.8101C6.95781 31.6639 4.66641 28.3726 2.81542 24.7888C1.67059 22.5722 0.713388 20.2807 0.250291 17.8107C-0.0647096 16.1305 -0.130457 14.4442 0.366634 12.7866C1.12542 10.2563 2.91188 8.70589 5.31755 7.63867Z" fill="white"/>
<path d="M19.0617 0C18.2465 -1.14789e-07 17.4392 0.161689 16.686 0.475838C15.9328 0.789988 15.2484 1.25044 14.6719 1.83091C14.0955 2.41138 13.6382 3.10051 13.3262 3.85893C13.0142 4.61735 12.8537 5.43023 12.8537 6.25113C12.8537 6.31784 12.8568 6.38703 12.8613 6.45737C13.1225 12.3127 19.0617 18.1434 19.0617 18.1434C19.0617 18.1434 25.0009 12.3127 25.2621 6.45737C25.2666 6.38703 25.2698 6.31784 25.2698 6.25113C25.3442 2.79953 22.4903 0 19.0617 0Z" fill="#02B0EA"/>
</g>
<defs>
<clipPath id="clip0_109_946">
<rect width="162" height="45" fill="white"/>
</clipPath>
</defs>
</svg>
