<svg width="116" height="32" viewBox="0 0 116 32" fill="none" xmlns="http://www.w3.org/2000/svg">
<g clip-path="url(#clip0_4069_6275)">
<path d="M3.80503 5.43188C4.32328 9.49643 6.21684 12.8584 8.72436 15.9281C10.0906 17.5869 11.6172 19.1068 13.282 20.4657C13.7279 20.8331 13.6016 20.8036 13.9867 20.4853C16.651 18.2834 18.9782 15.78 20.7937 12.8254C22.1435 10.6287 23.1002 8.28275 23.4531 5.71256C23.4639 5.63336 23.4807 5.55496 23.5017 5.43649C25.4369 6.28916 26.7989 7.59286 27.1838 9.7296C27.4591 11.2582 27.1872 12.738 26.7302 14.1945C26.0783 16.2718 25.0755 18.1836 23.9123 20.0109C21.1723 24.3152 17.891 28.1682 14.136 31.621C14.0762 31.6761 14.015 31.7297 13.9534 31.7828C13.6088 32.0798 13.6665 32.0696 13.3279 31.7683C10.9272 29.6313 8.77813 27.2584 6.77178 24.7538C4.97954 22.5165 3.33877 20.176 2.01338 17.6275C1.19363 16.0513 0.50822 14.4218 0.176621 12.6653C-0.0489357 11.4705 -0.0960138 10.2714 0.259927 9.09264C0.803255 7.29329 2.08245 6.19079 3.80503 5.43188Z" fill="white"/>
<path d="M114.575 25.7857C113.587 27.1709 112.343 28.1192 110.796 28.6701C109.601 29.0955 108.361 29.2422 107.101 29.2196C105.641 29.1933 104.216 28.9651 102.891 28.3172C100.192 26.9977 98.6168 24.8432 98.1821 21.8739C97.9354 20.1883 98.0399 18.5153 98.7227 16.9433C100.099 13.7756 102.532 12.0128 105.984 11.6837C107.446 11.5442 108.89 11.6563 110.238 12.2693C113.081 13.5624 114.783 15.7603 115.29 18.8524C115.452 19.882 115.454 20.9307 115.293 21.9607C115.224 22.4266 115.227 22.429 114.76 22.429C111.181 22.4296 107.601 22.4297 104.021 22.4293H103.499C103.393 22.562 103.474 22.6606 103.52 22.7582C103.977 23.7441 104.77 24.3146 105.802 24.5728C106.656 24.7931 107.549 24.8232 108.416 24.6608C109.166 24.5177 109.837 24.2048 110.392 23.6691C110.504 23.5608 110.587 23.4875 110.764 23.5909C112.012 24.3198 113.267 25.035 114.575 25.7857ZM110.431 18.6892C110.05 17.3807 109.318 16.507 108.022 16.1936C107.323 16.0321 106.598 16.0228 105.895 16.1665C105.446 16.2453 105.019 16.4165 104.64 16.669C103.926 17.1546 103.522 17.8413 103.293 18.6892H110.431Z" fill="white"/>
<path d="M42.72 12.6506C42.72 12.5529 42.7141 12.4548 42.721 12.3576C42.7341 12.1769 42.6702 12.0939 42.4734 12.0948C40.976 12.0997 39.4787 12.0997 37.9814 12.0948C37.7963 12.0944 37.7176 12.1554 37.7216 12.3464C37.7303 12.7322 37.7245 13.1185 37.7245 13.5502C37.5335 13.4955 37.4735 13.3924 37.3943 13.3143C36.7934 12.7132 36.0565 12.2656 35.246 12.0094C33.7643 11.5335 32.1751 11.506 30.6778 11.9303C30.2911 12.0382 30.1387 12.0836 30.0513 12.2526C29.9345 13.2003 29.7272 14.1346 29.432 15.0426C28.7688 17.1563 27.774 19.2182 26.3011 21.532C25.9906 22.0199 25.6722 22.5037 25.346 22.9836C25.2965 23.0564 25.2636 23.1392 25.2497 23.2262C25.2358 23.3132 25.2413 23.4022 25.2657 23.4868C25.3115 23.6562 25.3672 23.8227 25.4323 23.9856C26.43 26.3708 28.0661 28.1015 30.5748 28.9074C31.7269 29.277 32.9126 29.2966 34.1003 29.1208C35.4257 28.9249 36.5895 28.3921 37.5257 27.4105C37.5667 27.367 37.6063 27.3031 37.724 27.3685C37.724 27.6825 37.7216 28.0185 37.7245 28.3545C37.7279 28.754 37.7299 28.7589 38.1196 28.7594C39.4704 28.7618 40.8212 28.7618 42.172 28.7594C42.7781 28.7584 42.7195 28.8321 42.7195 28.2139C42.7205 23.026 42.7206 17.8382 42.72 12.6506ZM37.5902 21.6029C37.2029 23.2472 35.8838 24.3558 34.1912 24.4715C33.6392 24.5199 33.083 24.4753 32.5458 24.3397C31.0119 23.9236 29.9541 22.6367 29.8232 21.0222C29.8076 20.8278 29.8046 20.633 29.7959 20.4381C29.7857 19.9823 29.841 19.5274 29.9599 19.0873C30.3868 17.5533 31.6824 16.5028 33.295 16.3871C33.8488 16.3475 34.4031 16.3583 34.9413 16.5121C36.2804 16.896 37.1643 17.7477 37.5457 19.0956C37.7762 19.9136 37.7915 20.7772 37.5902 21.6029Z" fill="white"/>
<path d="M85.3098 13.5386C85.401 13.4972 85.4372 13.492 85.4551 13.4711C86.7756 11.9292 88.5404 11.5821 90.4423 11.6479C93.6373 11.7584 95.9238 14.2043 96.2456 17.3625C96.3001 17.9288 96.3256 18.4975 96.3218 19.0664C96.3187 22.0739 96.3182 25.0815 96.3203 28.0891C96.3203 28.1704 96.3211 28.2517 96.3202 28.333C96.3156 28.753 96.3154 28.7566 95.8921 28.7572C94.5254 28.759 93.1587 28.7589 91.7919 28.7568C91.352 28.7559 91.3089 28.8637 91.3092 28.2892C91.3111 25.3629 91.3113 22.4366 91.3098 19.5102C91.3097 19.0545 91.292 18.6008 91.1618 18.1585C91.019 17.6545 90.728 17.2051 90.3265 16.8685C89.9251 16.532 89.4317 16.3239 88.9105 16.2712C88.4737 16.2156 88.0308 16.2293 87.5982 16.3119C86.423 16.552 85.624 17.4068 85.405 18.6416C85.338 19.026 85.3054 19.4156 85.3075 19.8058C85.312 22.5858 85.3128 25.3658 85.3098 28.1458C85.3046 28.2432 85.3052 28.3408 85.3116 28.4382C85.3431 28.7014 85.22 28.764 84.9741 28.7624C83.5424 28.753 82.1105 28.7596 80.6787 28.7566C80.3209 28.7559 80.3172 28.749 80.3144 28.3694C80.3108 27.8655 80.3135 27.3615 80.3135 26.8575V12.8112C80.3135 12.7136 80.314 12.6161 80.3135 12.5185C80.3109 12.0686 80.2983 12.0935 80.737 12.0939C82.1363 12.0952 83.5355 12.093 84.9348 12.0954C85.3022 12.096 85.3049 12.1013 85.309 12.4685C85.3128 12.8075 85.3098 13.1465 85.3098 13.5386Z" fill="white"/>
<path d="M59.2187 7.35015C59.2187 8.25556 59.2187 9.13281 59.2187 10.0101C59.2187 10.5956 59.2293 11.1814 59.2137 11.7666C59.2071 12.015 59.2747 12.1133 59.5375 12.1019C59.9762 12.0829 60.4163 12.0968 60.8559 12.0968C61.3116 12.0969 61.7674 12.0952 62.2232 12.0974C62.6427 12.0993 62.6462 12.1011 62.6467 12.5214C62.6485 13.8552 62.6484 15.1889 62.6464 16.5227C62.6463 16.6344 62.6692 16.7504 62.6074 16.8581C62.4527 16.9252 62.2877 16.8944 62.127 16.895C61.2642 16.8983 60.4014 16.9009 59.5387 16.8938C59.3266 16.892 59.2131 16.9301 59.2144 17.1834C59.2242 19.0538 59.2112 20.9244 59.2286 22.7948C59.2346 23.4332 59.5776 23.8199 60.1994 23.971C60.4991 24.0492 60.8072 24.0905 61.1168 24.0942C61.54 24.0924 61.9633 24.1013 62.3862 24.0922C62.5669 24.0883 62.6505 24.1359 62.6497 24.3339C62.6443 25.6839 62.6442 27.0339 62.6494 28.3839C62.65 28.572 62.5682 28.6387 62.3906 28.654C60.9272 28.7797 59.468 28.8231 58.0131 28.5446C55.9977 28.1589 54.8741 26.9003 54.4435 24.9504C54.2901 24.2344 54.2161 23.5037 54.2227 22.7716C54.2261 20.9661 54.226 19.1607 54.2222 17.3552C54.2217 16.9012 54.2188 16.8988 53.774 16.8971C53.1392 16.8948 52.504 16.8857 51.8696 16.9017C51.6088 16.9083 51.5392 16.8164 51.5411 16.5654C51.5514 15.1829 51.5515 13.8004 51.5415 12.4178C51.5397 12.1579 51.6323 12.0848 51.8827 12.0919C52.452 12.1078 53.0221 12.1008 53.5918 12.0959C54.3311 12.0895 54.2153 12.1847 54.2211 11.4898C54.2279 10.6929 54.2287 9.89574 54.2187 9.09887C54.2161 8.89058 54.2698 8.78412 54.4863 8.72099C56.0147 8.27534 57.5389 7.81513 59.0648 7.36062C59.1157 7.35312 59.1672 7.34962 59.2187 7.35015Z" fill="white"/>
<path d="M64.6508 16.5716C64.6508 12.7506 64.6508 8.92953 64.6508 5.10848C64.6576 4.99485 64.6568 4.8809 64.6485 4.76736C64.612 4.49426 64.7452 4.44431 64.9883 4.44583C66.4366 4.45488 67.8848 4.45489 69.3331 4.44586C69.5883 4.44422 69.6925 4.52628 69.6593 4.78138C69.6524 4.87871 69.6518 4.97638 69.6574 5.07379C69.6574 12.7646 69.657 20.4555 69.6561 28.1464C69.6559 28.8451 69.7504 28.7541 69.0257 28.7566C67.7239 28.7611 66.422 28.7613 65.1202 28.757C64.6709 28.7562 64.65 28.8483 64.6502 28.2786C64.6514 24.3763 64.6516 20.4739 64.6508 16.5716Z" fill="white"/>
<path d="M45.0533 16.6265C45.0533 12.7898 45.0533 8.95309 45.0533 5.11639C45.0533 5.01885 45.0518 4.92128 45.0536 4.82377C45.0603 4.46061 45.0607 4.45494 45.4316 4.45428C46.8308 4.45177 48.2301 4.45148 49.6293 4.45341C50.0793 4.45353 50.0497 4.42221 50.0497 4.87722C50.0496 8.14492 50.0495 11.4126 50.0496 14.6803C50.0496 19.1348 50.0496 23.5893 50.0496 28.0437C50.0496 28.1413 50.0505 28.2388 50.0495 28.3364C50.0449 28.756 50.0447 28.7593 49.6241 28.7598C48.2411 28.7614 46.8581 28.7614 45.4752 28.7597C45.058 28.7592 45.0541 28.7556 45.054 28.3317C45.0529 24.43 45.0527 20.5282 45.0533 16.6265Z" fill="white"/>
<path d="M77.4834 20.44C77.4834 23.0099 77.4834 25.5798 77.4834 28.1496C77.4779 28.2471 77.4785 28.3448 77.4852 28.4422C77.519 28.7106 77.3856 28.7656 77.1448 28.7642C75.6961 28.7561 74.2473 28.7561 72.7985 28.7643C72.5732 28.7655 72.458 28.7095 72.4858 28.4664C72.4918 28.3689 72.4924 28.2713 72.4874 28.1738C72.4874 23.0177 72.4874 17.8617 72.4874 12.7056C72.4928 12.6081 72.4922 12.5104 72.4856 12.4131C72.4527 12.1477 72.5786 12.0904 72.8232 12.0921C74.2393 12.1018 75.6556 12.0956 77.0718 12.0975C77.4793 12.0981 77.4827 12.1022 77.4829 12.5351C77.4839 15.17 77.4841 17.805 77.4834 20.44Z" fill="white"/>
<path d="M74.9743 4.46118C74.3825 4.46118 73.8041 4.63666 73.3121 4.96541C72.8201 5.29417 72.4366 5.76144 72.2101 6.30814C71.9837 6.85484 71.9244 7.45642 72.0399 8.03679C72.1553 8.61716 72.4403 9.15027 72.8587 9.5687C73.2771 9.98713 73.8102 10.2721 74.3906 10.3875C74.971 10.503 75.5726 10.4437 76.1193 10.2173C76.666 9.99081 77.1332 9.60733 77.462 9.11532C77.7907 8.6233 77.9662 8.04485 77.9662 7.4531C77.9662 7.0602 77.8888 6.67114 77.7385 6.30814C77.5881 5.94514 77.3677 5.61532 77.0899 5.33749C76.8121 5.05967 76.4822 4.83928 76.1193 4.68893C75.7563 4.53857 75.3672 4.46118 74.9743 4.46118ZM76.5933 7.81387C76.5933 7.83362 76.5894 7.85319 76.5819 7.87144C76.5743 7.8897 76.5632 7.90629 76.5492 7.92026C76.5353 7.93423 76.5187 7.94531 76.5004 7.95287C76.4822 7.96043 76.4626 7.96432 76.4429 7.96432H75.636C75.5961 7.96432 75.5578 7.98017 75.5296 8.00839C75.5014 8.03661 75.4855 8.07488 75.4855 8.11478V8.92166C75.4855 8.94142 75.4816 8.96098 75.4741 8.97924C75.4665 8.99749 75.4554 9.01408 75.4414 9.02805C75.4275 9.04203 75.4109 9.05311 75.3926 9.06067C75.3744 9.06823 75.3548 9.07212 75.335 9.07212H74.6135C74.5938 9.07212 74.5742 9.06823 74.556 9.06067C74.5377 9.05311 74.5211 9.04203 74.5071 9.02805C74.4932 9.01408 74.4821 8.99749 74.4745 8.97924C74.467 8.96098 74.4631 8.94142 74.4631 8.92166V8.11478C74.4631 8.09502 74.4592 8.07546 74.4516 8.0572C74.4441 8.03895 74.433 8.02236 74.419 8.00839C74.405 7.99442 74.3884 7.98334 74.3702 7.97578C74.3519 7.96821 74.3324 7.96432 74.3126 7.96432H73.5057C73.4658 7.96432 73.4276 7.94847 73.3993 7.92025C73.3711 7.89204 73.3553 7.85377 73.3553 7.81387V7.09233C73.3553 7.05242 73.3711 7.01415 73.3993 6.98593C73.4276 6.95772 73.4658 6.94187 73.5057 6.94187H74.3126C74.3324 6.94187 74.3519 6.93797 74.3702 6.93041C74.3884 6.92285 74.405 6.91177 74.419 6.8978C74.433 6.88383 74.4441 6.86724 74.4516 6.84899C74.4592 6.83073 74.4631 6.81117 74.4631 6.79141V5.98453C74.4631 5.96477 74.467 5.94521 74.4745 5.92695C74.4821 5.9087 74.4932 5.89211 74.5071 5.87814C74.5211 5.86417 74.5377 5.85309 74.556 5.84553C74.5742 5.83797 74.5938 5.83407 74.6135 5.83407H75.335C75.3548 5.83407 75.3744 5.83796 75.3926 5.84552C75.4109 5.85308 75.4275 5.86417 75.4414 5.87814C75.4554 5.89211 75.4665 5.9087 75.4741 5.92695C75.4816 5.94521 75.4855 5.96477 75.4855 5.98453V6.79141C75.4855 6.83131 75.5014 6.86958 75.5296 6.8978C75.5578 6.92601 75.5961 6.94187 75.636 6.94187H76.4429C76.4626 6.94186 76.4822 6.94576 76.5004 6.95332C76.5187 6.96088 76.5353 6.97196 76.5492 6.98593C76.5632 6.99991 76.5743 7.01649 76.5819 7.03475C76.5894 7.053 76.5933 7.07257 76.5933 7.09233V7.81387Z" fill="#02B0EA"/>
<path d="M3.80698 5.43188C4.32523 9.49643 6.21879 12.8584 8.72631 15.9281C10.0926 17.5869 11.6192 19.1068 13.284 20.4657C13.7299 20.8331 13.6035 20.8036 13.9886 20.4853C16.6529 18.2834 18.9801 15.78 20.7956 12.8254C22.1455 10.6287 23.1022 8.28275 23.455 5.71256C23.4659 5.63336 23.4826 5.55496 23.5037 5.43649C25.4389 6.28916 26.8009 7.59286 27.1857 9.7296C27.461 11.2582 27.1892 12.738 26.7321 14.1945C26.0803 16.2718 25.0774 18.1836 23.9142 20.0109C21.1743 24.3152 17.893 28.1682 14.138 31.621C14.0781 31.6761 14.017 31.7297 13.9553 31.7828C13.6107 32.0798 13.6684 32.0696 13.3299 31.7683C10.9292 29.6313 8.78008 27.2584 6.77373 24.7538C4.98149 22.5165 3.34073 20.176 2.01533 17.6275C1.19558 16.0513 0.510174 14.4218 0.178574 12.6653C-0.0469826 11.4705 -0.0940606 10.2714 0.261881 9.09264C0.80521 7.29329 2.0844 6.19079 3.80698 5.43188Z" fill="white"/>
<path d="M13.6484 0C13.0647 -8.16276e-08 12.4866 0.114979 11.9473 0.338374C11.408 0.561769 10.9179 0.889205 10.5051 1.30198C10.0924 1.71476 9.76489 2.20481 9.54149 2.74413C9.3181 3.28345 9.20312 3.8615 9.20312 4.44525C9.20312 4.49269 9.20534 4.54189 9.20859 4.59191C9.39559 8.75568 13.6484 12.902 13.6484 12.902C13.6484 12.902 17.9012 8.75568 18.0882 4.59191C18.0914 4.54189 18.0937 4.49269 18.0937 4.44525C18.147 1.99078 16.1035 0 13.6484 0Z" fill="#02B0EA"/>
</g>
<defs>
<clipPath id="clip0_4069_6275">
<rect width="116" height="32" fill="white"/>
</clipPath>
</defs>
</svg>
