<svg width="22" height="23" viewBox="0 0 22 23" fill="none" xmlns="http://www.w3.org/2000/svg">
<g clip-path="url(#clip0_149_6193)">
<path d="M15.4248 2.66675C17.5379 2.66691 19.1693 4.08157 19.8936 6.02026C20.5957 7.89982 20.3938 10.1575 18.9814 11.8464L18.8408 12.0085L10.5186 21.2263L2.19824 12.0085C0.65117 10.2953 0.416669 7.95181 1.14453 6.0144C1.87224 4.07778 3.50734 2.6669 5.61328 2.66675C6.89225 2.66675 7.81967 3.1726 8.50781 3.74976C8.85583 4.04167 9.14112 4.35134 9.38086 4.62769C9.44088 4.69687 9.49788 4.76342 9.55273 4.82788C9.60656 4.89114 9.6605 4.95443 9.71094 5.01245C9.80394 5.11942 9.91909 5.24844 10.0371 5.34741L10.5195 5.75171L11.001 5.34741C11.1184 5.24887 11.2334 5.12004 11.3262 5.01343C11.3765 4.95554 11.4305 4.89203 11.4844 4.82886C11.5392 4.76447 11.5962 4.69782 11.6562 4.62866C11.8963 4.35245 12.1826 4.04291 12.5312 3.75073C13.221 3.17279 14.1492 2.66675 15.4248 2.66675Z" stroke="#02B0EA" stroke-width="1.5"/>
</g>
<defs>
<clipPath id="clip0_149_6193">
<rect width="21.0382" height="23" fill="white"/>
</clipPath>
</defs>
</svg>
